<svg version="1.1" xmlns="http://www.w3.org/2000/svg" xmlns:xlink="http://www.w3.org/1999/xlink" width="260.5" height="62.88819" viewBox="0,0,260.5,62.88819"><g transform="translate(-145.9375,-144.09926)"><g data-paper-data="{&quot;isPaintingLayer&quot;:true}" fill-rule="nonzero" stroke-linecap="butt" stroke-linejoin="miter" stroke-miterlimit="10" stroke-dasharray="" stroke-dashoffset="0" style="mix-blend-mode: normal"><path d="M147.9375,198.87738c0,-9.90781 0.125,-31.90279 0.125,-37.75c0,-3.71477 2.66023,-5.875 6.375,-5.875c17.06878,0 141.16162,-0.19283 171.126,-0.23978c3.80765,-0.00597 6.499,2.05713 6.499,5.86478c0,5.83629 0,27.31212 0,38c0,4.07976 -2.42165,6.11941 -6.5014,6.11005c-30.41315,-0.06978 -157.73486,-0.36005 -171.2486,-0.36005c-2.23503,0 -6.375,-1.96719 -6.375,-5.75z" fill="#66b3ff" stroke="#000000" stroke-width="4"/><text transform="translate(174.3539,187.83166) scale(2.46667,2.46667)" font-size="10.5833" xml:space="preserve" fill="#000000" fill-rule="nonzero" stroke="none" stroke-width="0.26458" stroke-linecap="butt" stroke-linejoin="miter" stroke-miterlimit="10" stroke-dasharray="" stroke-dashoffset="0" font-family="Rockwell" font-weight="400" text-anchor="start" style="mix-blend-mode: normal"><tspan x="0" dy="0">Join lobby</tspan></text><path d="M367.0625,191.31251c0,0 3.79367,-5.08188 9.24996,-4.99658c6.00044,0.09382 9.00005,5.24658 9.00005,5.24658l-9,8.375z" fill="#ff6666" stroke="#000000" stroke-width="0"/><path d="M361.8125,185.56251l-5,-4.875c0,0 5.77636,-9.29399 19.75,-9.5c14.64573,-0.21591 19.25,9.5 19.25,9.5l-5.25,5.125c0,0 -5.87979,-6.91826 -14.00328,-6.74786c-8.33201,0.17477 -14.74672,6.49786 -14.74672,6.49786z" fill="#ff6666" stroke="#000000" stroke-width="0"/><path d="M351.3125,174.81251l-5.375,-4.625c0,0 12.59557,-14.3173 30.00194,-14.43817c19.01007,-0.22906 30.49806,14.18817 30.49806,14.18817l-5.125,4.625c0,0 -9.26947,-10.64249 -25.12375,-10.37438c-16.43631,0.27796 -24.87625,10.62438 -24.87625,10.62438z" fill="#ff6666" stroke="#000000" stroke-width="0"/><path d="M357.38747,203.03462l37.14928,-58.93535l5.07577,3.19946l-37.14928,58.93535z" fill="#ff6666" stroke="#000000" stroke-width="0"/><path d="M149.25,203.75001v-47.5h181.5v47.5z" fill-opacity="0.25098" fill="#000000" stroke="none" stroke-width="0"/></g></g></svg>